<?xml version="1.0" encoding="UTF-8" standalone="no"?>
<svg
   xmlns:svg="http://www.w3.org/2000/svg"
   xmlns="http://www.w3.org/2000/svg"
   version="1.1"
   viewBox="0 0 69 25"
   height="25mm"
   width="69mm">
  <g
     transform="translate(0,-272)"
     id="layer1">
    <g
       id="text3701"
       style="font-style:normal;font-variant:normal;font-weight:normal;font-stretch:normal;font-size:10.58333302px;line-height:1.25;font-family:'Kohinoor Bangla';-inkscape-font-specification:'Kohinoor Bangla';letter-spacing:0px;word-spacing:0px;fill:#000000;fill-opacity:1;stroke:none;stroke-width:0.26458332"
       aria-label="applet">
      <path
         id="path123"
         style="font-style:normal;font-variant:normal;font-weight:normal;font-stretch:normal;font-size:50.79999924px;font-family:'Malayalam MN';-inkscape-font-specification:'Malayalam MN';stroke-width:0.12326838"
         d="M 10.821764,291.55647 H 8.3486932 v -1.6988 q -0.439144,0.33514 -0.8667306,0.68183 -0.4160309,0.3467 -0.9129563,0.6356 -0.4853694,0.28891 -1.0863029,0.46226 -0.5893769,0.18491 -1.3752128,0.18491 -0.7280539,0 -1.3174309,-0.24269 -0.589377,-0.23113 -1.0054078,-0.64716 -0.4160307,-0.41603 -0.6356026,-0.98229 -0.21957177,-0.56627 -0.21957177,-1.22498 0,-0.79739 0.31202307,-1.433 0.3235795,-0.64716 0.8667308,-1.15564 0.5547078,-0.50848 1.2827617,-0.9014 0.7396103,-0.39292 1.5601152,-0.70494 0.8205053,-0.31203 1.6872364,-0.55471 0.8782871,-0.24268 1.7103485,-0.4507 v -0.77428 q 0,-0.84361 -0.173346,-1.42144 -0.16179,-0.58937 -0.4738128,-0.94762 -0.3120233,-0.35825 -0.762723,-0.50848 -0.4391435,-0.1618 -0.9938513,-0.1618 -0.6240466,0 -1.0169644,0.1618 -0.3929178,0.16179 -0.6240461,0.42758 -0.2195719,0.2658 -0.3004668,0.61249 -0.080895,0.33514 -0.080895,0.68183 0,0.32358 -0.057782,0.62405 -0.046226,0.30046 -0.1849025,0.53159 -0.138677,0.21958 -0.3813616,0.35825 -0.2311282,0.13868 -0.6009334,0.13868 -0.2889103,0 -0.5315949,-0.10401 -0.2311282,-0.11556 -0.4044744,-0.31202 -0.1733462,-0.19646 -0.2657974,-0.46226 -0.092451,-0.2658 -0.092451,-0.57782 0,-0.61249 0.4044744,-1.14409 0.4044743,-0.53159 1.0863026,-0.91295 0.6818283,-0.39292 1.5947847,-0.61249 0.9129564,-0.23113 1.9183642,-0.23113 1.2249797,0 2.0685974,0.24268 0.8436177,0.23113 1.3636554,0.65872 0.5200387,0.42759 0.7511667,1.04008 0.231128,0.61249 0.231128,1.3521 z m -2.4730708,-7.23431 q -0.5315946,0.17334 -1.109415,0.39291 -0.5662643,0.21957 -1.1209721,0.49693 -0.5431511,0.26579 -1.040077,0.58937 -0.4969259,0.31203 -0.8782872,0.67028 -0.3698052,0.35824 -0.589377,0.76272 -0.2195718,0.40447 -0.2195718,0.84362 0,0.4507 0.1617897,0.86673 0.1733462,0.40447 0.4507,0.7165 0.2773541,0.30046 0.6356027,0.48537 0.3698052,0.17334 0.762723,0.17334 0.4160309,0 0.7858361,-0.104 0.3813617,-0.11557 0.7280537,-0.30048 0.3582491,-0.1849 0.7049411,-0.42758 0.3582488,-0.25424 0.7280538,-0.5316 z" />
      <path
         id="path125"
         style="font-style:normal;font-variant:normal;font-weight:normal;font-stretch:normal;font-size:50.79999924px;font-family:'Malayalam MN';-inkscape-font-specification:'Malayalam MN';stroke-width:0.12326838"
         d="m 14.02289,279.14488 h 2.461515 v 2.53085 q 0.369806,-0.47381 0.820506,-0.95918 0.462256,-0.49692 1.016964,-0.9014 0.554707,-0.40447 1.213423,-0.65871 0.670272,-0.2658 1.467664,-0.2658 1.097859,0 1.999259,0.46226 0.9014,0.46225 1.537003,1.25965 0.635603,0.78583 0.982295,1.84902 0.346692,1.06319 0.346692,2.26506 0,1.537 -0.427587,2.84287 -0.427587,1.29432 -1.213423,2.24195 -0.785836,0.94763 -1.906808,1.47922 -1.120972,0.5316 -2.519298,0.5316 -0.520038,0 -0.959182,-0.0578 -0.439143,-0.0462 -0.843618,-0.16179 -0.392917,-0.104 -0.762723,-0.27735 -0.369805,-0.17335 -0.751167,-0.41603 v 5.88221 H 14.02289 Z m 2.461515,9.06023 q 0,0.5547 0.242685,1.05163 0.242685,0.49693 0.681828,0.86673 0.439144,0.35825 1.051634,0.57782 0.61249,0.20802 1.340543,0.20802 0.693385,0 1.294318,-0.34669 0.61249,-0.35825 1.06319,-1.00541 0.462257,-0.64716 0.716498,-1.53701 0.265797,-0.90139 0.265797,-1.99926 0,-1.37521 -0.242685,-2.39217 -0.242684,-1.02852 -0.681828,-1.71035 -0.427587,-0.68183 -1.016964,-1.01696 -0.589377,-0.33514 -1.294318,-0.33514 -0.543151,0 -1.040077,0.17335 -0.485369,0.16179 -0.924513,0.43914 -0.427587,0.27735 -0.797392,0.64716 -0.369805,0.35825 -0.658716,0.75117 z" />
      <path
         id="path127"
         style="font-style:normal;font-variant:normal;font-weight:normal;font-stretch:normal;font-size:50.79999924px;font-family:'Malayalam MN';-inkscape-font-specification:'Malayalam MN';stroke-width:0.12326838"
         d="m 28.167936,279.14488 h 2.461516 v 2.53085 q 0.369805,-0.47381 0.820505,-0.95918 0.462256,-0.49692 1.016964,-0.9014 0.554708,-0.40447 1.213423,-0.65871 0.670272,-0.2658 1.467665,-0.2658 1.097858,0 1.999259,0.46226 0.901399,0.46225 1.537002,1.25965 0.635603,0.78583 0.982295,1.84902 0.346692,1.06319 0.346692,2.26506 0,1.537 -0.427587,2.84287 -0.427587,1.29432 -1.213423,2.24195 -0.785836,0.94763 -1.906808,1.47922 -1.120972,0.5316 -2.519297,0.5316 -0.520039,0 -0.959183,-0.0578 -0.439143,-0.0462 -0.843618,-0.16179 -0.392917,-0.104 -0.762722,-0.27735 -0.369806,-0.17335 -0.751167,-0.41603 v 5.88221 h -2.461516 z m 2.461516,9.06023 q 0,0.5547 0.242684,1.05163 0.242685,0.49693 0.681829,0.86673 0.439143,0.35825 1.051633,0.57782 0.61249,0.20802 1.340544,0.20802 0.693384,0 1.294318,-0.34669 0.61249,-0.35825 1.063189,-1.00541 0.462257,-0.64716 0.716498,-1.53701 0.265798,-0.90139 0.265798,-1.99926 0,-1.37521 -0.242685,-2.39217 -0.242685,-1.02852 -0.681828,-1.71035 -0.427588,-0.68183 -1.016965,-1.01696 -0.589377,-0.33514 -1.294318,-0.33514 -0.543151,0 -1.040076,0.17335 -0.48537,0.16179 -0.924513,0.43914 -0.427588,0.27735 -0.797393,0.64716 -0.369805,0.35825 -0.658715,0.75117 z" />
      <path
         id="path129"
         style="font-style:normal;font-variant:normal;font-weight:normal;font-stretch:normal;font-size:50.79999924px;font-family:'Malayalam MN';-inkscape-font-specification:'Malayalam MN';stroke-width:0.12326838"
         d="m 44.890064,291.55647 h -2.461516 v -18.06268 l 1.756575,-0.70493 h 0.704941 z" />
      <path
         id="path131"
         style="font-style:normal;font-variant:normal;font-weight:normal;font-stretch:normal;font-size:50.79999924px;font-family:'Malayalam MN';-inkscape-font-specification:'Malayalam MN';stroke-width:0.12326838"
         d="m 53.40714,291.82227 q -1.259649,0 -2.369064,-0.47382 -1.097862,-0.47381 -1.92992,-1.28276 -0.820508,-0.82051 -1.305874,-1.90681 -0.473817,-1.09786 -0.473817,-2.34595 0,-1.49077 0.439145,-2.76198 0.439144,-1.27121 1.236535,-2.19572 0.797395,-0.92451 1.918365,-1.44455 1.132529,-0.52004 2.507743,-0.52004 1.224981,0 2.241944,0.42759 1.016963,0.42759 1.745019,1.15564 0.728051,0.71649 1.132528,1.66412 0.404473,0.94763 0.404473,1.98771 h -9.256683 q 0,1.24809 0.323579,2.32283 0.323579,1.06319 0.901397,1.83747 0.577823,0.77428 1.386768,1.21342 0.80895,0.43915 1.768133,0.43915 0.808949,0 1.548559,-0.25424 0.739611,-0.2658 1.340542,-0.68183 0.600937,-0.42759 1.016968,-0.97074 0.427586,-0.55471 0.600932,-1.13253 l 0.704943,0.31203 q -0.265799,0.95918 -0.866735,1.8028 -0.589373,0.83206 -1.386768,1.4561 -0.785837,0.62405 -1.73346,0.99385 -0.93607,0.35826 -1.895252,0.35826 z m 2.461516,-8.69043 q 0,-0.70494 -0.25424,-1.30587 -0.242685,-0.61249 -0.68183,-1.05163 -0.427585,-0.45071 -1.016963,-0.70495 -0.577823,-0.25424 -1.248094,-0.25424 -0.554705,0 -1.074748,0.25424 -0.508479,0.25424 -0.912956,0.69339 -0.392919,0.43914 -0.658712,1.05163 -0.254245,0.60094 -0.312025,1.30588 z" />
      <path
         id="path133"
         style="font-style:normal;font-variant:normal;font-weight:normal;font-stretch:normal;font-size:50.79999924px;font-family:'Malayalam MN';-inkscape-font-specification:'Malayalam MN';stroke-width:0.12326838"
         d="m 68.199341,289.97324 q -0.496925,0.85517 -1.317429,1.3521 -0.820503,0.49693 -2.022371,0.49693 -0.624045,0 -1.086303,-0.20802 -0.450699,-0.20802 -0.751169,-0.58938 -0.300466,-0.38136 -0.450699,-0.91296 -0.138674,-0.53159 -0.138674,-1.17875 v -8.7482 H 60.2832 v -0.61249 q 1.040081,0 1.710352,-0.36981 0.670271,-0.38136 1.097856,-1.01696 0.427591,-0.64716 0.670271,-1.49078 0.242686,-0.84362 0.427591,-1.79124 h 0.704938 v 4.2412 h 2.785095 v 1.04008 h -2.785095 v 8.7482 q 0,0.27736 0.104011,0.52004 0.104007,0.24268 0.277353,0.42759 0.1849,0.17334 0.427586,0.27735 0.254239,0.10401 0.531597,0.10401 0.416031,0 0.751164,-0.19646 0.346692,-0.20802 0.600936,-0.50848 z" />
    </g>
  </g>
</svg>
